
<svg viewBox="0 0 22 12" fill="none" xmlns="http://www.w3.org/2000/svg">
<path d="M21 6.3848C21 5.8213 20.7668 5.2775 20.3263 4.9261C15.0181 0.691294 6.98187 0.691304 1.67372 4.9261C1.23323 5.2775 1 5.8213 1 6.3848V8.0459C1 9.4609 2.42906 10.4284 3.74279 9.9029L4.75503 9.498C5.50695 9.1972 6 8.469 6 7.6591C6 6.9634 6.36003 6.302 7.01151 6.058C9.3085 5.1977 12.6915 5.1977 14.9885 6.058C15.64 6.302 16 6.9634 16 7.6591C16 8.469 16.493 9.1972 17.245 9.498L18.2572 9.9029C19.5709 10.4284 21 9.4609 21 8.0459V6.3848Z" stroke="#FFFDFD" stroke-width="2" stroke-linecap="round" stroke-linejoin="round"/>
</svg>
