
<svg viewBox="0 0 367 490" fill="none" xmlns="http://www.w3.org/2000/svg">
<path d="M367 225C367 213.7 357.9 204.6 346.6 204.6C335.3 204.6 326.2 213.7 326.2 225C326.2 295 262.2 351.9 183.5 351.9C104.8 351.9 40.8 295 40.8 225C40.8 213.7 31.7 204.6 20.4 204.6C9.1 204.6 0 213.7 0 225C0 311.2 71.5 382.4 163.1 391.7V449.2H139.5C128.2 449.2 119.1 458.3 119.1 469.6C119.1 480.9 128.2 490 139.5 490H227.5C238.8 490 247.9 480.9 247.9 469.6C247.9 458.3 238.8 449.2 227.5 449.2H203.9V391.7C295.5 382.4 367 311.2 367 225Z" fill="#FFFEFE"/>
<path d="M183.5 312.5C234.5 312.5 275.8 271.2 275.8 220.2V92.3C275.8 41.3 234.5 0 183.5 0C132.5 0 91.2002 41.3 91.2002 92.3V220.2C91.2002 271.2 132.5 312.5 183.5 312.5ZM131.2 92.3C131.2 63.5 154.7 40 183.5 40C212.3 40 235.8 63.5 235.8 92.3V220.2C235.8 249 212.3 272.5 183.5 272.5C154.7 272.5 131.2 249 131.2 220.2V92.3Z" fill="#FFFEFE"/>
</svg>
