
<svg viewBox="0 0 380 490" fill="none" xmlns="http://www.w3.org/2000/svg">
<path d="M367.5 225C367.5 213.7 358.4 204.6 347.1 204.6C335.8 204.6 326.7 213.7 326.7 225C326.7 295 262.7 351.9 184 351.9C105.3 351.9 41.3 295 41.3 225C41.3 213.7 32.2 204.6 20.9 204.6C9.6 204.6 0.5 213.7 0.5 225C0.5 311.2 72 382.4 163.6 391.7V449.2H140C128.7 449.2 119.6 458.3 119.6 469.6C119.6 480.9 128.7 490 140 490H228C239.3 490 248.4 480.9 248.4 469.6C248.4 458.3 239.3 449.2 228 449.2H204.4V391.7C296 382.4 367.5 311.2 367.5 225Z" fill="#FFFEFE"/>
<path d="M184 312.5C235 312.5 276.3 271.2 276.3 220.2V92.3C276.3 41.3 235 0 184 0C133 0 91.7002 41.3 91.7002 92.3V220.2C91.7002 271.2 133 312.5 184 312.5ZM131.7 92.3C131.7 63.5 155.2 40 184 40C212.8 40 236.3 63.5 236.3 92.3V220.2C236.3 249 212.8 272.5 184 272.5C155.2 272.5 131.7 249 131.7 220.2V92.3Z" fill="#FFFEFE"/>
<path d="M363.305 389L27.3047 53" stroke="#FF0000" stroke-width="32" stroke-miterlimit="10" stroke-linecap="round"/>
</svg>
