<svg width="236" height="152" viewBox="0 0 236 152" fill="none" xmlns="http://www.w3.org/2000/svg">
<path d="M20.5 0.599902C11.2 2.0999 4 8.09991 0.8 16.9999C1.78814e-07 19.2999 0 22.1999 0 75.9999C0 129.8 1.78814e-07 132.7 0.8 135C3.5 142.8 9.7 148.6 17.5 150.8C21 151.8 153.4 151.8 156.8 150.8C164.8 148.5 170.8 142.7 173.5 134.7C174.1 133 174.3 129.6 174.4 117.8L174.6 103L205.2 119.5L235.8 136V75.9999V16.0999L205.2 32.5999L174.6 49.0999L174.4 34.2999C174.3 22.4999 174.1 19.0999 173.5 17.3999C170.9 9.59991 165.5 4.19991 157.5 1.39991C155.6 0.699905 149.1 0.599902 88.5 0.599902C51.8 0.499902 21.2 0.499902 20.5 0.599902ZM157.3 11.4999C160.3 13.0999 162.3 15.1999 163.7 18.2999L164.9 20.7999V75.9999V131.1L163.7 133.6C162.3 136.7 160.3 138.9 157.3 140.4L155 141.6L87.7 141.7L20.4 142L17.7 140.8C13 138.7 10.1 134.8 9.4 129.4C8.8 125.6 8.8 26.2999 9.4 22.4999C10.1 17.1999 12.8 13.4999 17.5 11.2999L20.3 9.9999L87.7 10.0999L155.1 10.1999L157.3 11.4999ZM226.8 75.9999C226.8 100.1 226.7 119.8 226.5 119.8C226.3 119.8 214.6 113.6 200.5 106L174.9 92.1999V75.9999V59.7999L200.5 45.9999C214.6 38.3999 226.2 32.1999 226.5 32.1999C226.6 32.1999 226.8 51.8999 226.8 75.9999Z" fill="white"/>
</svg>
